<mxfile host="app.diagrams.net" agent="Mozilla/5.0 (Windows NT 10.0; Win64; x64) AppleWebKit/537.36 (KHTML, like Gecko) Chrome/130.0.0.0 Safari/537.36" version="24.8.1">
  <diagram name="Page-1" id="pdKOR6aYSHcw-Q9d_JTD">
    <mxGraphModel dx="281" dy="557" grid="0" gridSize="10" guides="1" tooltips="1" connect="1" arrows="1" fold="1" page="1" pageScale="1" pageWidth="827" pageHeight="1169" math="0" shadow="0">
      <root>
        <mxCell id="0" />
        <mxCell id="1" parent="0" />
        <mxCell id="yqfwdV7V8xz36Cssi5gz-5" value="rdf:type" style="edgeStyle=orthogonalEdgeStyle;rounded=0;orthogonalLoop=1;jettySize=auto;html=1;exitX=0.5;exitY=1;exitDx=0;exitDy=0;entryX=0.5;entryY=0;entryDx=0;entryDy=0;" edge="1" parent="1" source="yqfwdV7V8xz36Cssi5gz-1" target="yqfwdV7V8xz36Cssi5gz-2">
          <mxGeometry relative="1" as="geometry" />
        </mxCell>
        <mxCell id="yqfwdV7V8xz36Cssi5gz-6" value="bio:birth" style="edgeStyle=orthogonalEdgeStyle;rounded=0;orthogonalLoop=1;jettySize=auto;html=1;exitX=1;exitY=0.5;exitDx=0;exitDy=0;entryX=0.5;entryY=0;entryDx=0;entryDy=0;" edge="1" parent="1" source="yqfwdV7V8xz36Cssi5gz-1" target="yqfwdV7V8xz36Cssi5gz-4">
          <mxGeometry relative="1" as="geometry" />
        </mxCell>
        <mxCell id="yqfwdV7V8xz36Cssi5gz-7" value="bnf-onto:lastYear" style="edgeStyle=orthogonalEdgeStyle;rounded=0;orthogonalLoop=1;jettySize=auto;html=1;exitX=0;exitY=0.5;exitDx=0;exitDy=0;entryX=0.5;entryY=0;entryDx=0;entryDy=0;" edge="1" parent="1" source="yqfwdV7V8xz36Cssi5gz-1" target="yqfwdV7V8xz36Cssi5gz-3">
          <mxGeometry relative="1" as="geometry" />
        </mxCell>
        <mxCell id="yqfwdV7V8xz36Cssi5gz-1" value="?auteur" style="ellipse;whiteSpace=wrap;html=1;" vertex="1" parent="1">
          <mxGeometry x="190" y="150" width="70" height="50" as="geometry" />
        </mxCell>
        <mxCell id="yqfwdV7V8xz36Cssi5gz-2" value="foaf:Person" style="ellipse;whiteSpace=wrap;html=1;" vertex="1" parent="1">
          <mxGeometry x="190" y="320" width="70" height="50" as="geometry" />
        </mxCell>
        <mxCell id="yqfwdV7V8xz36Cssi5gz-3" value="?mort" style="ellipse;whiteSpace=wrap;html=1;" vertex="1" parent="1">
          <mxGeometry x="110" y="320" width="70" height="50" as="geometry" />
        </mxCell>
        <mxCell id="yqfwdV7V8xz36Cssi5gz-4" value="?naissance" style="ellipse;whiteSpace=wrap;html=1;" vertex="1" parent="1">
          <mxGeometry x="270" y="320" width="70" height="50" as="geometry" />
        </mxCell>
      </root>
    </mxGraphModel>
  </diagram>
</mxfile>
